# xmcd
#
# Track frame offsets:
#	183
#	9688
#	24190
#	39563
#	51663
#	69390
#	82150
#	95325
#	107933
#	120365
#	130200
#	143275
#	154405
#	165778
#	178900
#	188490
#	202843
#	218310
#	232635
#	242548
#
# Disc length: 3446 seconds
#
# Revision: 0
# Processed by: cddbd v1.5.1PL0 Copyright (c) Steve Scherf et al.
# Submitted via: dBpowerAMP V4.0
#
DISCID=f50d7414
DTITLE=Val Doonican - 20 Personal Favourites for you
DYEAR=1988
DGENRE=Country
TTITLE0=Snowbird
TTITLE1=I'm just a Country Boy
TTITLE2=Little green Apples
TTITLE3=My Cup runneth over
TTITLE4=You and Me against the World
TTITLE5=The Folks who Live on the Hill
TTITLE6=All I ever need is You
TTITLE7=Try to Remember
TTITLE8=Mysterious People
TTITLE9=Annie's Song
TTITLE10=Things
TTITLE11=Walking in the Sunshine
TTITLE12=Morning of my Life
TTITLE13=He'll have to go
TTITLE14=Sing a Rainbow
TTITLE15=Portrait of my Love
TTITLE16=Small World
TTITLE17=A Man chases a Girl
TTITLE18=King of the Road
TTITLE19=Scarlet Ribbons
EXTD=
EXTT0=
EXTT1=
EXTT2=
EXTT3=
EXTT4=
EXTT5=
EXTT6=
EXTT7=
EXTT8=
EXTT9=
EXTT10=
EXTT11=
EXTT12=
EXTT13=
EXTT14=
EXTT15=
EXTT16=
EXTT17=
EXTT18=
EXTT19=
PLAYORDER=
